<svg width="32" height="32" viewBox="0 0 32 32" fill="none" xmlns="http://www.w3.org/2000/svg">
<path d="M26.4165 8.45961L21.4165 3.45961C21.3235 3.36678 21.2132 3.29317 21.0918 3.24298C20.9704 3.19279 20.8403 3.16701 20.709 3.16711H10.709C10.1786 3.16711 9.66984 3.37783 9.29477 3.7529C8.9197 4.12797 8.70898 4.63668 8.70898 5.16711V7.16711H6.70898C6.17855 7.16711 5.66984 7.37783 5.29477 7.7529C4.9197 8.12797 4.70898 8.63668 4.70898 9.16711V27.1671C4.70898 27.6975 4.9197 28.2063 5.29477 28.5813C5.66984 28.9564 6.17855 29.1671 6.70898 29.1671H20.709C21.2394 29.1671 21.7481 28.9564 22.1232 28.5813C22.4983 28.2063 22.709 27.6975 22.709 27.1671V25.1671H24.709C25.2394 25.1671 25.7481 24.9564 26.1232 24.5813C26.4983 24.2063 26.709 23.6975 26.709 23.1671V9.16711C26.7091 9.03575 26.6833 8.90566 26.6331 8.78427C26.5829 8.66287 26.5093 8.55255 26.4165 8.45961ZM20.709 27.1671H6.70898V9.16711H16.2952L20.709 13.5809V24.1471C20.709 24.1546 20.709 24.1609 20.709 24.1671C20.709 24.1734 20.709 24.1796 20.709 24.1871V27.1671ZM24.709 23.1671H22.709V13.1671C22.7091 13.0358 22.6833 12.9057 22.6331 12.7843C22.5829 12.6629 22.5093 12.5526 22.4165 12.4596L17.4165 7.45961C17.3235 7.36678 17.2132 7.29317 17.0918 7.24298C16.9704 7.19279 16.8403 7.16701 16.709 7.16711H10.709V5.16711H20.2952L24.709 9.58086V23.1671ZM17.709 19.1671C17.709 19.4323 17.6036 19.6867 17.4161 19.8742C17.2286 20.0618 16.9742 20.1671 16.709 20.1671H10.709C10.4438 20.1671 10.1894 20.0618 10.0019 19.8742C9.81434 19.6867 9.70898 19.4323 9.70898 19.1671C9.70898 18.9019 9.81434 18.6475 10.0019 18.46C10.1894 18.2725 10.4438 18.1671 10.709 18.1671H16.709C16.9742 18.1671 17.2286 18.2725 17.4161 18.46C17.6036 18.6475 17.709 18.9019 17.709 19.1671ZM17.709 23.1671C17.709 23.4323 17.6036 23.6867 17.4161 23.8742C17.2286 24.0618 16.9742 24.1671 16.709 24.1671H10.709C10.4438 24.1671 10.1894 24.0618 10.0019 23.8742C9.81434 23.6867 9.70898 23.4323 9.70898 23.1671C9.70898 22.9019 9.81434 22.6475 10.0019 22.46C10.1894 22.2725 10.4438 22.1671 10.709 22.1671H16.709C16.9742 22.1671 17.2286 22.2725 17.4161 22.46C17.6036 22.6475 17.709 22.9019 17.709 23.1671Z" fill="#515151"/>
</svg>
