<svg width="27" height="27" viewBox="0 0 27 27" fill="none" xmlns="http://www.w3.org/2000/svg">
<mask id="path-1-outside-1_1900_34387" maskUnits="userSpaceOnUse" x="-0.390381" y="4.61719" width="22" height="22" fill="black">
<rect fill="white" x="-0.390381" y="4.61719" width="22" height="22"/>
<path d="M7.03141 8.61719H5.89081C5.2858 8.61719 4.70557 8.85753 4.27777 9.28533C3.84996 9.71314 3.60962 10.2934 3.60962 10.8984V21.1638C3.60962 21.7688 3.84996 22.349 4.27777 22.7768C4.70557 23.2046 5.2858 23.4449 5.89081 23.4449H16.1562C16.7612 23.4449 17.3414 23.2046 17.7692 22.7768C18.197 22.349 18.4374 21.7688 18.4374 21.1638V20.0232"/>
</mask>
<path d="M7.03141 11.7357C8.75371 11.7357 10.1499 10.3395 10.1499 8.61719C10.1499 6.89489 8.75371 5.4987 7.03141 5.4987V11.7357ZM5.89081 8.61719V5.4987V8.61719ZM3.60962 10.8984H0.491127H3.60962ZM3.60962 21.1638H0.491127H3.60962ZM21.5559 20.0232C21.5559 18.3009 20.1597 16.9047 18.4374 16.9047C16.7151 16.9047 15.3189 18.3009 15.3189 20.0232H21.5559ZM7.03141 5.4987H5.89081V11.7357H7.03141V5.4987ZM5.89081 5.4987C4.45873 5.4987 3.0853 6.06759 2.07266 7.08023L6.48287 11.4904C6.32585 11.6475 6.11288 11.7357 5.89081 11.7357V5.4987ZM2.07266 7.08023C1.06002 8.09286 0.491127 9.4663 0.491127 10.8984H6.72811C6.72811 11.1204 6.6399 11.3334 6.48287 11.4904L2.07266 7.08023ZM0.491127 10.8984V21.1638H6.72811V10.8984H0.491127ZM0.491127 21.1638C0.491127 22.5958 1.06002 23.9693 2.07266 24.9819L6.48287 20.5717C6.6399 20.7287 6.72811 20.9417 6.72811 21.1638L0.491127 21.1638ZM2.07266 24.9819C3.08529 25.9945 4.45873 26.5634 5.89081 26.5634V20.3265C6.11288 20.3265 6.32585 20.4147 6.48287 20.5717L2.07266 24.9819ZM5.89081 26.5634H16.1562V20.3265H5.89081V26.5634ZM16.1562 26.5634C17.5883 26.5634 18.9617 25.9945 19.9743 24.9819L15.5641 20.5717C15.7211 20.4147 15.9341 20.3265 16.1562 20.3265V26.5634ZM19.9743 24.9819C20.987 23.9693 21.5559 22.5958 21.5559 21.1638H15.3189C15.3189 20.9417 15.4071 20.7287 15.5641 20.5717L19.9743 24.9819ZM21.5559 21.1638V20.0232H15.3189V21.1638H21.5559Z" fill="url(#paint0_linear_1900_34387)" mask="url(#path-1-outside-1_1900_34387)"/>
<mask id="path-3-outside-2_1900_34387" maskUnits="userSpaceOnUse" x="5.31274" y="0.0546875" width="21" height="21" fill="black">
<rect fill="white" x="5.31274" y="0.0546875" width="21" height="21"/>
<path d="M22.2984 8.14385C22.7477 7.69463 23 7.08536 23 6.45006C23 5.81477 22.7477 5.2055 22.2984 4.75628C21.8492 4.30706 21.2399 4.05469 20.6047 4.05469C19.9694 4.05469 19.3601 4.30706 18.9109 4.75628L9.31274 14.3202V17.742H12.7345L22.2984 8.14385ZM17.2969 6.336L20.7187 9.75779Z"/>
</mask>
<path d="M22.2984 8.14385L20.0933 5.93874L20.0894 5.94268L22.2984 8.14385ZM20.6047 4.05469V0.936195V4.05469ZM18.9109 4.75628L21.112 6.96532L21.116 6.96138L18.9109 4.75628ZM9.31274 14.3202L7.11158 12.1111C6.52434 12.6963 6.19425 13.4912 6.19425 14.3202H9.31274ZM9.31274 17.742H6.19425C6.19425 19.4643 7.59045 20.8605 9.31274 20.8605V17.742ZM12.7345 17.742V20.8605C13.5635 20.8605 14.3584 20.5304 14.9436 19.9431L12.7345 17.742ZM19.502 4.1309C18.2842 2.91305 16.3097 2.91305 15.0918 4.1309C13.874 5.34874 13.874 7.32326 15.0918 8.54111L19.502 4.1309ZM18.5136 11.9629C19.7315 13.1807 21.706 13.1807 22.9238 11.9629C24.1417 10.7451 24.1417 8.77053 22.9238 7.55269L18.5136 11.9629ZM24.5035 10.349C25.5376 9.3149 26.1185 7.91243 26.1185 6.45006L19.8815 6.45006C19.8815 6.25828 19.9577 6.07435 20.0933 5.93874L24.5035 10.349ZM26.1185 6.45006C26.1185 4.9877 25.5376 3.58522 24.5035 2.55117L20.0933 6.96138C19.9577 6.82577 19.8815 6.64184 19.8815 6.45006L26.1185 6.45006ZM24.5035 2.55117C23.4695 1.51712 22.067 0.936195 20.6047 0.936195V7.17318C20.4129 7.17318 20.2289 7.097 20.0933 6.96138L24.5035 2.55117ZM20.6047 0.936195C19.1423 0.936195 17.7398 1.51712 16.7058 2.55117L21.116 6.96138C20.9804 7.09699 20.7964 7.17318 20.6047 7.17318V0.936195ZM16.7097 2.54724L7.11158 12.1111L11.5139 16.5292L21.112 6.96532L16.7097 2.54724ZM6.19425 14.3202V17.742H12.4312V14.3202H6.19425ZM9.31274 20.8605H12.7345V14.6235H9.31274V20.8605ZM14.9436 19.9431L24.5075 10.345L20.0894 5.94268L10.5255 15.5408L14.9436 19.9431ZM15.0918 8.54111L18.5136 11.9629L22.9238 7.55269L19.502 4.1309L15.0918 8.54111Z" fill="url(#paint1_linear_1900_34387)" mask="url(#path-3-outside-2_1900_34387)"/>
<defs>
<linearGradient id="paint0_linear_1900_34387" x1="11.0235" y1="8.61719" x2="11.0235" y2="23.4449" gradientUnits="userSpaceOnUse">
<stop stop-color="#9C50BA"/>
<stop offset="1" stop-color="#6F48AA"/>
</linearGradient>
<linearGradient id="paint1_linear_1900_34387" x1="16.1564" y1="4.05469" x2="16.1564" y2="17.742" gradientUnits="userSpaceOnUse">
<stop stop-color="#9C50BA"/>
<stop offset="1" stop-color="#6F48AA"/>
</linearGradient>
</defs>
</svg>
