<svg width="32" height="32" viewBox="0 0 32 32" fill="none" xmlns="http://www.w3.org/2000/svg">
<path d="M28 25.0001H27V5.00012C27 4.73491 26.8946 4.48055 26.7071 4.29302C26.5196 4.10548 26.2652 4.00012 26 4.00012H19C18.7348 4.00012 18.4804 4.10548 18.2929 4.29302C18.1054 4.48055 18 4.73491 18 5.00012V10.0001H12C11.7348 10.0001 11.4804 10.1055 11.2929 10.293C11.1054 10.4806 11 10.7349 11 11.0001V16.0001H6C5.73478 16.0001 5.48043 16.1055 5.29289 16.293C5.10536 16.4806 5 16.7349 5 17.0001V25.0001H4C3.73478 25.0001 3.48043 25.1055 3.29289 25.293C3.10536 25.4806 3 25.7349 3 26.0001C3 26.2653 3.10536 26.5197 3.29289 26.7072C3.48043 26.8948 3.73478 27.0001 4 27.0001H28C28.2652 27.0001 28.5196 26.8948 28.7071 26.7072C28.8946 26.5197 29 26.2653 29 26.0001C29 25.7349 28.8946 25.4806 28.7071 25.293C28.5196 25.1055 28.2652 25.0001 28 25.0001ZM20 6.00012H25V25.0001H20V6.00012ZM13 12.0001H18V25.0001H13V12.0001ZM7 18.0001H11V25.0001H7V18.0001Z" fill="#515151"/>
</svg>
