<svg width="32" height="33" viewBox="0 0 32 33" fill="none" xmlns="http://www.w3.org/2000/svg">
<path d="M5 16.75C5.26522 16.75 5.51957 16.6446 5.70711 16.4571C5.89464 16.2696 6 16.0152 6 15.75V6.75H17V12.75C17 13.0152 17.1054 13.2696 17.2929 13.4571C17.4804 13.6446 17.7348 13.75 18 13.75H24V15.75C24 16.0152 24.1054 16.2696 24.2929 16.4571C24.4804 16.6446 24.7348 16.75 25 16.75C25.2652 16.75 25.5196 16.6446 25.7071 16.4571C25.8946 16.2696 26 16.0152 26 15.75V12.75C26.0001 12.6186 25.9743 12.4885 25.9241 12.3672C25.8739 12.2458 25.8003 12.1354 25.7075 12.0425L18.7075 5.0425C18.6146 4.94967 18.5042 4.87605 18.3829 4.82586C18.2615 4.77568 18.1314 4.7499 18 4.75H6C5.46957 4.75 4.96086 4.96071 4.58579 5.33579C4.21071 5.71086 4 6.21957 4 6.75V15.75C4 16.0152 4.10536 16.2696 4.29289 16.4571C4.48043 16.6446 4.73478 16.75 5 16.75ZM19 8.16375L22.5863 11.75H19V8.16375ZM27.5 27.75C27.5 28.0152 27.3946 28.2696 27.2071 28.4571C27.0196 28.6446 26.7652 28.75 26.5 28.75H23C22.7348 28.75 22.4804 28.6446 22.2929 28.4571C22.1054 28.2696 22 28.0152 22 27.75V20.75C22 20.4848 22.1054 20.2304 22.2929 20.0429C22.4804 19.8554 22.7348 19.75 23 19.75C23.2652 19.75 23.5196 19.8554 23.7071 20.0429C23.8946 20.2304 24 20.4848 24 20.75V26.75H26.5C26.7652 26.75 27.0196 26.8554 27.2071 27.0429C27.3946 27.2304 27.5 27.4848 27.5 27.75ZM10.4775 26.2887C10.4385 26.6712 10.3153 27.0403 10.1167 27.3695C9.91804 27.6987 9.64896 27.9797 9.32875 28.1925C8.68 28.625 7.875 28.75 7.1425 28.75C6.50366 28.7466 5.8678 28.6626 5.25 28.5C4.9976 28.4261 4.78449 28.2557 4.65681 28.0258C4.52914 27.7958 4.49718 27.5249 4.56787 27.2715C4.63856 27.0182 4.80619 26.8029 5.03447 26.6723C5.26275 26.5417 5.53329 26.5063 5.7875 26.5737C6.335 26.7237 7.65625 26.9112 8.23125 26.5287C8.3425 26.455 8.46 26.3388 8.49875 26.0375C8.5425 25.7038 8.41 25.525 6.90125 25.0888C5.7325 24.7513 3.77625 24.185 4.02625 22.2C4.06516 21.825 4.18612 21.4632 4.38055 21.1403C4.57497 20.8173 4.8381 20.5411 5.15125 20.3312C6.63125 19.3312 8.99125 19.9175 9.255 19.9862C9.38205 20.0197 9.50127 20.0779 9.60584 20.1575C9.7104 20.237 9.79828 20.3364 9.86444 20.4499C9.9306 20.5635 9.97375 20.6889 9.99144 20.8191C10.0091 20.9493 10.001 21.0817 9.9675 21.2087C9.93401 21.3358 9.87583 21.455 9.79627 21.5596C9.71671 21.6642 9.61733 21.752 9.50381 21.8182C9.39029 21.8843 9.26485 21.9275 9.13466 21.9452C9.00446 21.9629 8.87205 21.9547 8.745 21.9212C8.18375 21.775 6.8425 21.6012 6.2675 21.9912C6.19213 22.0421 6.13008 22.1103 6.08657 22.1901C6.04306 22.27 6.01938 22.3591 6.0175 22.45C6.0025 22.5625 6 22.585 6.1575 22.6875C6.44625 22.8738 6.9625 23.0225 7.46375 23.1675C8.6875 23.5212 10.7575 24.125 10.4775 26.2887ZM19.3525 26.6925C19.779 25.9493 20.0023 25.1069 20 24.25C20 21.7687 18.2063 19.75 16 19.75C13.7937 19.75 12 21.7687 12 24.25C12 26.7313 13.7937 28.75 16 28.75C16.7064 28.7475 17.3968 28.5399 17.9875 28.1525L18.2925 28.4575C18.4801 28.645 18.7346 28.7502 18.9998 28.7501C19.2651 28.75 19.5194 28.6445 19.7069 28.4569C19.8944 28.2692 19.9996 28.0148 19.9995 27.7496C19.9994 27.4843 19.8939 27.23 19.7062 27.0425L19.3525 26.6925ZM16 26.75C14.8975 26.75 14 25.625 14 24.25C14 22.875 14.8975 21.75 16 21.75C17.1025 21.75 18 22.875 18 24.25C18.0002 24.5687 17.9504 24.8855 17.8525 25.1887L17.7062 25.0425C17.6133 24.9497 17.5031 24.8761 17.3817 24.8258C17.2603 24.7756 17.1303 24.7498 16.9989 24.7499C16.7337 24.75 16.4794 24.8555 16.2919 25.0431C16.1044 25.2308 15.9991 25.4852 15.9993 25.7504C15.9994 26.0157 16.1049 26.27 16.2925 26.4575L16.5025 26.6663C16.3405 26.7206 16.1709 26.7488 16 26.75Z" fill="#515151"/>
</svg>
