<svg width="32" height="32" viewBox="0 0 32 32" fill="none" xmlns="http://www.w3.org/2000/svg">
<path d="M26 4.00012H6C5.46957 4.00012 4.96086 4.21084 4.58579 4.58591C4.21071 4.96098 4 5.46969 4 6.00012V26.0001C4 26.5306 4.21071 27.0393 4.58579 27.4143C4.96086 27.7894 5.46957 28.0001 6 28.0001H26C26.5304 28.0001 27.0391 27.7894 27.4142 27.4143C27.7893 27.0393 28 26.5306 28 26.0001V6.00012C28 5.46969 27.7893 4.96098 27.4142 4.58591C27.0391 4.21084 26.5304 4.00012 26 4.00012ZM12 15.0001C12 14.209 12.2346 13.4356 12.6741 12.7778C13.1136 12.12 13.7384 11.6074 14.4693 11.3046C15.2002 11.0019 16.0044 10.9226 16.7804 11.077C17.5563 11.2313 18.269 11.6123 18.8284 12.1717C19.3878 12.7311 19.7688 13.4438 19.9231 14.2198C20.0775 14.9957 19.9983 15.8 19.6955 16.5309C19.3928 17.2618 18.8801 17.8865 18.2223 18.326C17.5645 18.7655 16.7911 19.0001 16 19.0001C14.9391 19.0001 13.9217 18.5787 13.1716 17.8285C12.4214 17.0784 12 16.061 12 15.0001ZM8.58375 26.0001C9.09548 24.7403 9.91818 23.6308 10.975 22.7751C12.3979 21.6265 14.1714 21 16 21C17.8286 21 19.6021 21.6265 21.025 22.7751C22.0818 23.6308 22.9045 24.7403 23.4163 26.0001H8.58375ZM26 26.0001H25.5413C25.0966 24.5847 24.3422 23.2861 23.3329 22.1987C22.3236 21.1114 21.0847 20.2625 19.7062 19.7139C20.6876 18.9431 21.4042 17.8855 21.7562 16.6883C22.1083 15.4911 22.0784 14.214 21.6706 13.0346C21.2628 11.8553 20.4974 10.8324 19.481 10.1085C18.4647 9.3845 17.2479 8.99543 16 8.99543C14.7521 8.99543 13.5353 9.3845 12.519 10.1085C11.5026 10.8324 10.7372 11.8553 10.3294 13.0346C9.92164 14.214 9.89169 15.4911 10.2438 16.6883C10.5958 17.8855 11.3124 18.9431 12.2937 19.7139C10.9153 20.2625 9.67641 21.1114 8.66709 22.1987C7.65777 23.2861 6.90339 24.5847 6.45875 26.0001H6V6.00012H26V26.0001Z" fill="#515151"/>
</svg>
