<svg width="25" height="22" viewBox="0 0 25 22" fill="none" xmlns="http://www.w3.org/2000/svg">
<path d="M3.27604 0.0834961H21.9427C22.65 0.0834961 23.3282 0.364448 23.8283 0.864545C24.3284 1.36464 24.6094 2.04292 24.6094 2.75016V18.7502C24.6094 19.4574 24.3284 20.1357 23.8283 20.6358C23.3282 21.1359 22.65 21.4168 21.9427 21.4168H3.27604C2.5688 21.4168 1.89052 21.1359 1.39042 20.6358C0.890326 20.1357 0.609375 19.4574 0.609375 18.7502V2.75016C0.609375 2.04292 0.890326 1.36464 1.39042 0.864545C1.89052 0.364448 2.5688 0.0834961 3.27604 0.0834961ZM5.94271 5.41683C4.46995 5.41683 3.27604 6.61074 3.27604 8.0835V8.0835C3.27604 9.55625 4.46995 10.7502 5.94271 10.7502H8.60938C10.0821 10.7502 11.276 9.55625 11.276 8.0835V8.0835C11.276 6.61074 10.0821 5.41683 8.60938 5.41683H5.94271ZM16.6094 5.41683C15.1366 5.41683 13.9427 6.61074 13.9427 8.0835V8.0835C13.9427 9.55625 15.1366 10.7502 16.6094 10.7502H19.276C20.7488 10.7502 21.9427 9.55625 21.9427 8.0835V8.0835C21.9427 6.61074 20.7488 5.41683 19.276 5.41683H16.6094ZM5.94271 13.4168C4.46995 13.4168 3.27604 14.6107 3.27604 16.0835V16.0835C3.27604 17.5563 4.46995 18.7502 5.94271 18.7502H8.60938C10.0821 18.7502 11.276 17.5563 11.276 16.0835V16.0835C11.276 14.6107 10.0821 13.4168 8.60938 13.4168H5.94271ZM16.6094 13.4168C15.1366 13.4168 13.9427 14.6107 13.9427 16.0835V16.0835C13.9427 17.5563 15.1366 18.7502 16.6094 18.7502H19.276C20.7488 18.7502 21.9427 17.5563 21.9427 16.0835V16.0835C21.9427 14.6107 20.7488 13.4168 19.276 13.4168H16.6094Z" fill="url(#paint0_linear_1636_35948)"/>
<defs>
<linearGradient id="paint0_linear_1636_35948" x1="2.83795" y1="0.972384" x2="24.0691" y2="2.41155" gradientUnits="userSpaceOnUse">
<stop stop-color="#9D50BB"/>
<stop offset="1" stop-color="#6E48AA"/>
</linearGradient>
</defs>
</svg>
