<svg width="25" height="25" viewBox="0 0 25 25" fill="none" xmlns="http://www.w3.org/2000/svg">
<path d="M12.6094 24.75C9.25382 24.75 6.41471 24.2331 4.09204 23.1993C1.76938 22.1656 0.608487 20.9047 0.609376 19.4167V6.08333C0.609376 4.61667 1.78182 3.36111 4.12671 2.31667C6.4716 1.27222 9.29915 0.75 12.6094 0.75C15.9205 0.75 18.7485 1.27222 21.0934 2.31667C23.4383 3.36111 24.6103 4.61667 24.6094 6.08333V19.4167C24.6094 20.9056 23.448 22.1669 21.1254 23.2007C18.8027 24.2344 15.964 24.7509 12.6094 24.75ZM12.6094 8.78333C14.5872 8.78333 16.576 8.49978 18.576 7.93267C18.8782 7.847 19.1603 7.76045 19.4223 7.67304C21.2781 7.05402 21.2822 5.17656 19.4302 4.54621C19.1705 4.45783 18.8912 4.37021 18.592 4.28333C16.6027 3.70556 14.6085 3.41667 12.6094 3.41667C10.5872 3.41667 8.6036 3.70022 6.65871 4.26733C6.59133 4.28698 6.52492 4.30669 6.4595 4.32645C4.19444 5.0108 4.19605 7.22029 6.46491 7.89193C6.52901 7.91091 6.59406 7.92982 6.66004 7.94867C8.60493 8.50422 10.588 8.78244 12.6094 8.78333ZM12.6094 15.4167C13.5427 15.4167 14.4427 15.3722 15.3094 15.2833C16.176 15.1944 17.004 15.0664 17.7934 14.8993C18.5818 14.7331 19.3263 14.5278 20.0267 14.2833C20.3642 14.1655 20.6874 14.04 20.9963 13.9067C21.5908 13.6502 21.9427 13.0463 21.9427 12.3988V11.5428C21.9427 10.5969 20.9184 9.97168 20.0254 10.2833V10.2833C19.3249 10.5278 18.5805 10.7336 17.792 10.9007C17.0036 11.0669 16.176 11.1944 15.3094 11.2833C14.4427 11.3722 13.5427 11.4167 12.6094 11.4167C11.676 11.4167 10.7649 11.3722 9.87604 11.2833C8.98715 11.1944 8.14804 11.0664 7.35871 10.8993C6.57027 10.7331 5.8316 10.5278 5.14271 10.2833V10.2833C4.279 9.97685 3.27604 10.5802 3.27604 11.4967V12.4272C3.27604 13.0588 3.61371 13.65 4.1912 13.9058C4.49282 14.0394 4.80999 14.1653 5.14271 14.2833C5.8316 14.5278 6.57071 14.7336 7.36004 14.9007C8.14849 15.0669 8.98715 15.1944 9.87604 15.2833C10.7649 15.3722 11.676 15.4167 12.6094 15.4167ZM12.6094 22.0833C13.6316 22.0833 14.6703 22.0056 15.7254 21.85C16.7805 21.6944 17.7529 21.4887 18.6427 21.2327C19.5316 20.9776 20.276 20.6887 20.876 20.366C21.322 20.1262 21.6329 19.8837 21.8087 19.6385C21.9204 19.4828 21.9427 19.2856 21.9427 19.094V18.2094C21.9427 17.2636 20.9184 16.6383 20.0254 16.95V16.95C19.3249 17.1944 18.5805 17.4002 17.792 17.5673C17.0036 17.7336 16.176 17.8611 15.3094 17.95C14.4427 18.0389 13.5427 18.0833 12.6094 18.0833C11.676 18.0833 10.7649 18.0389 9.87604 17.95C8.98715 17.8611 8.14804 17.7331 7.35871 17.566C6.57027 17.3998 5.8316 17.1944 5.14271 16.95V16.95C4.279 16.6435 3.27604 17.2469 3.27604 18.1633V19.13C3.27604 19.3199 3.29787 19.5152 3.40796 19.6699C3.58164 19.9139 3.88789 20.1517 4.32671 20.3833C4.91604 20.6944 5.65471 20.978 6.54271 21.234C7.4316 21.4891 8.40938 21.6944 9.47604 21.85C10.5427 22.0056 11.5872 22.0833 12.6094 22.0833Z" fill="url(#paint0_linear_1636_35945)"/>
<defs>
<linearGradient id="paint0_linear_1636_35945" x1="2.83795" y1="1.75" x2="24.0895" y2="3.03049" gradientUnits="userSpaceOnUse">
<stop stop-color="#9D50BB"/>
<stop offset="1" stop-color="#6E48AA"/>
</linearGradient>
</defs>
</svg>
