<svg width="51" height="41" viewBox="0 0 51 41" fill="none" xmlns="http://www.w3.org/2000/svg">
<path fill-rule="evenodd" clip-rule="evenodd" d="M16.4445 40.7296C12.2509 39.7754 8.83237 37.9201 5.95376 35.036C2.52819 31.604 0.575923 27.4184 0.0939713 22.4729C-0.473197 16.6535 1.54598 10.8625 5.63736 6.57437C8.48361 3.59098 11.4108 1.88111 15.5794 0.766815C17.2683 0.315319 17.5913 0.280449 20.2348 0.264668C22.4039 0.251568 23.3798 0.313274 24.3629 0.525211C28.6321 1.44556 31.8699 3.18225 34.8525 6.15176C37.9189 9.20459 39.8903 12.9606 40.6156 17.1323C41.0614 19.6964 40.6388 21.236 39.1124 22.6082C37.1867 24.3397 34.209 24.2462 32.3009 22.3945C31.4776 21.5955 31.1268 20.8061 30.7395 18.8807C29.7886 14.1532 26.4367 10.9208 21.8197 10.2785C16.9937 9.60732 12.3998 12.4471 10.5968 17.2163C10.1854 18.3049 10.1513 18.5635 10.1513 20.6041C10.1513 22.6347 10.1867 22.9069 10.5883 23.9682C11.188 25.5531 11.9943 26.8798 12.9552 27.8632C15.865 30.8413 20.2352 31.8336 24.0355 30.3789C26.4395 29.4587 26.7346 29.3727 27.5047 29.3678C29.4081 29.3555 31.088 30.3596 31.9498 32.0245C32.4095 32.9127 32.465 33.1601 32.465 34.3222C32.465 35.458 32.4035 35.7476 31.9842 36.5868C31.7197 37.1159 31.2551 37.7671 30.9516 38.0334C29.9249 38.9349 27.883 39.8306 25.2847 40.5193C23.8822 40.8911 23.3728 40.942 20.7082 40.9775C18.268 41.0101 17.4744 40.9638 16.4445 40.7296Z" fill="url(#paint0_linear_1667_18082)"/>
<path fill-rule="evenodd" clip-rule="evenodd" d="M42.0727 39.8842C40.8683 39.6538 39.3798 38.9002 38.4843 38.0675C36.9974 36.6849 36.2953 35.2634 35.9775 32.9912C35.6622 30.738 34.281 28.5495 32.4252 27.3621C30.9694 26.4307 29.9226 26.1258 28.1643 26.1206C26.7926 26.1167 26.4573 26.1718 25.5999 26.5421C22.7663 27.766 22.6324 27.8087 21.4007 27.8829C19.0995 28.0213 17.2866 27.3523 15.6636 25.7657C14.2243 24.3588 13.5483 22.8759 13.4449 20.899C13.3502 19.0908 13.7064 17.757 14.6787 16.2774C15.4623 15.085 16.3189 14.358 17.7042 13.7098C20.2965 12.4966 23.1246 12.8117 25.4815 14.5764C27.044 15.7462 27.9132 17.3461 28.3385 19.8343C28.674 21.7984 29.4178 23.2927 30.6714 24.5219C33.0498 26.8538 36.2061 27.4229 39.4111 26.0976C41.6149 25.1862 42.3386 25.03 43.9742 25.1133C45.8862 25.2107 47.3851 25.885 48.7722 27.2722C52.3561 30.856 51.3303 37.0144 46.7859 39.1964C45.1279 39.9924 43.716 40.1984 42.0727 39.8842Z" fill="#FF9900"/>
<defs>
<linearGradient id="paint0_linear_1667_18082" x1="3.78703" y1="39.29" x2="39.8996" y2="37.1109" gradientUnits="userSpaceOnUse">
<stop stop-color="#9D50BB"/>
<stop offset="1" stop-color="#6E48AA"/>
</linearGradient>
</defs>
</svg>
